{
    "accessors" : [
        {
            "bufferView" : 0, 
            "componentType" : 5123, 
            "count" : 2952, 
            "max" : [
                529
            ], 
            "min" : [
                0
            ], 
            "type" : "SCALAR"
        }, 
        {
            "bufferView" : 1, 
            "componentType" : 5126, 
            "count" : 530, 
            "max" : [
                1.000000238418579, 
                3.2205591201782227, 
                1.7904704809188843
            ], 
            "min" : [
                -0.9999998211860657, 
                0.4877197742462158, 
                -0.9999991655349731
            ], 
            "type" : "VEC3"
        }, 
        {
            "bufferView" : 2, 
            "componentType" : 5126, 
            "count" : 530, 
            "max" : [
                1.0, 
                1.0, 
                1.0
            ], 
            "min" : [
                -1.0, 
                -1.0, 
                -1.0
            ], 
            "type" : "VEC3"
        }, 
        {
            "bufferView" : 3, 
            "componentType" : 5123, 
            "count" : 5760, 
            "max" : [
                3967
            ], 
            "min" : [
                0
            ], 
            "type" : "SCALAR"
        }, 
        {
            "bufferView" : 4, 
            "componentType" : 5126, 
            "count" : 3968, 
            "max" : [
                0.3093823194503784, 
                2.532437801361084, 
                1.0237326622009277
            ], 
            "min" : [
                -0.30938225984573364, 
                2.3324379920959473, 
                0.8237326145172119
            ], 
            "type" : "VEC3"
        }, 
        {
            "bufferView" : 5, 
            "componentType" : 5126, 
            "count" : 3968, 
            "max" : [
                0.9904382228851318, 
                0.9951399564743042, 
                0.9904385209083557
            ], 
            "min" : [
                -0.9904382228851318, 
                -0.9951399564743042, 
                -0.9904385209083557
            ], 
            "type" : "VEC3"
        }, 
        {
            "bufferView" : 6, 
            "componentType" : 5123, 
            "count" : 2880, 
            "max" : [
                481
            ], 
            "min" : [
                0
            ], 
            "type" : "SCALAR"
        }, 
        {
            "bufferView" : 7, 
            "componentType" : 5126, 
            "count" : 482, 
            "max" : [
                1.000000238418579, 
                1.6992300748825073, 
                1.0000003576278687
            ], 
            "min" : [
                -0.9999999403953552, 
                -1.6992303133010864, 
                -0.9999991655349731
            ], 
            "type" : "VEC3"
        }, 
        {
            "bufferView" : 8, 
            "componentType" : 5126, 
            "count" : 482, 
            "max" : [
                1.0, 
                1.0, 
                0.999969482421875
            ], 
            "min" : [
                -1.0, 
                -1.0, 
                -1.0
            ], 
            "type" : "VEC3"
        }
    ], 
    "asset" : {
        "generator" : "Khronos Blender glTF 2.0 exporter", 
        "version" : "2.0"
    }, 
    "bufferViews" : [
        {
            "buffer" : 0, 
            "byteLength" : 5904, 
            "byteOffset" : 0, 
            "target" : 34963
        }, 
        {
            "buffer" : 0, 
            "byteLength" : 6360, 
            "byteOffset" : 5904, 
            "target" : 34962
        }, 
        {
            "buffer" : 0, 
            "byteLength" : 6360, 
            "byteOffset" : 12264, 
            "target" : 34962
        }, 
        {
            "buffer" : 0, 
            "byteLength" : 11520, 
            "byteOffset" : 18624, 
            "target" : 34963
        }, 
        {
            "buffer" : 0, 
            "byteLength" : 47616, 
            "byteOffset" : 30144, 
            "target" : 34962
        }, 
        {
            "buffer" : 0, 
            "byteLength" : 47616, 
            "byteOffset" : 77760, 
            "target" : 34962
        }, 
        {
            "buffer" : 0, 
            "byteLength" : 5760, 
            "byteOffset" : 125376, 
            "target" : 34963
        }, 
        {
            "buffer" : 0, 
            "byteLength" : 5784, 
            "byteOffset" : 131136, 
            "target" : 34962
        }, 
        {
            "buffer" : 0, 
            "byteLength" : 5784, 
            "byteOffset" : 136920, 
            "target" : 34962
        }
    ], 
    "buffers" : [
        {
            "byteLength" : 142704, 
            "uri" : "data:application/octet-stream;base64,"
        }
    ], 
    "meshes" : [
        {
            "name" : "Sphere.001", 
            "primitives" : [
                {
                    "attributes" : {
                        "NORMAL" : 2, 
                        "POSITION" : 1
                    }, 
                    "indices" : 0
                }, 
                {
                    "attributes" : {
                        "NORMAL" : 5, 
                        "POSITION" : 4
                    }, 
                    "indices" : 3
                }, 
                {
                    "attributes" : {
                        "NORMAL" : 8, 
                        "POSITION" : 7
                    }, 
                    "indices" : 6
                }
            ]
        }
    ], 
    "nodes" : [
        {
            "mesh" : 0, 
            "name" : "Sphere.001"
        }
    ], 
    "scene" : 0, 
    "scenes" : [
        {
            "name" : "Scene", 
            "nodes" : [
                0
            ]
        }
    ]
}
